# xmcd
#
# Track frame offsets: 
#        150
#        1388
#        20543
#        36530
#        38660
#        50108
#        67159
#        83639
#        99071
#        102021
#        118862
#        139036
#        154198
#        172432
#        190122
#        207208
#        210462
#        224708
#
# Disc length: 3198 seconds
#
# Revision: 0
# Processed by: cddbd v1.5.2PL0 Copyright (c) Steve Scherf et al.
# Submitted via: ExactAudioCopy v0.99pb4
#
DISCID=060c7c12
DTITLE=КРП aka Купэ - Мой Магнитофон
DYEAR=2009
DGENRE=Rap
TTITLE0=Интро [Feat. Gazgallery]
TTITLE1=Буду Верен [Version 2009]
TTITLE2=Ром, Спрайт И Лед
TTITLE3=Euro [Feat. Mr. Красный] [Skit]
TTITLE4=Потому Что Мне Плевать
TTITLE5=Oрел Или Решка [Feat. Guf]
TTITLE6=Мой Магнитофон
TTITLE7=1000 Огней [Feat. Илья Киреев]
TTITLE8=Peace..Да!! [Feat. Жора] [Skit]
TTITLE9=Поставь Мой Компакт [ft. Крипл]
TTITLE10=Годы Не Вернуть
TTITLE11=Три Вокзала [Feat. Sidr]
TTITLE12=Без Слов О Любви
TTITLE13=Без Вариантов
TTITLE14=Буду Верен [Version 2006]
TTITLE15=В Ротацию [Feat. Next FM] [Skit]
TTITLE16=В Ротацию [Feat. Ноггано]
TTITLE17=Это Не Стайл
EXTD=
EXTT0=
EXTT1=
EXTT2=
EXTT3=
EXTT4=
EXTT5=
EXTT6=
EXTT7=
EXTT8=
EXTT9=
EXTT10=
EXTT11=
EXTT12=
EXTT13=
EXTT14=
EXTT15=
EXTT16=
EXTT17=
PLAYORDER=
